<svg width="715" height="116" viewBox="0 0 715 116" fill="none" xmlns="http://www.w3.org/2000/svg">
<path d="M432.492 28.8806C440.883 14.8185 454.049 5.76013 468.851 5.76013C483.653 5.76013 496.819 14.8185 505.21 28.8806C496.819 42.9426 483.653 52.001 468.851 52.001C454.049 52.001 440.883 42.9426 432.492 28.8806Z" fill="white"/>
<rect x="453.747" y="13.5909" width="29.8328" height="30.2057" rx="14.9164" fill="black"/>
<path d="M15.8562 45.0151C6.87371 45.0151 0.166016 38.3657 0.166016 29.1499C0.166016 19.9925 6.99037 13.2848 15.8562 13.2848C24.8387 13.2848 31.5464 19.9925 31.5464 29.1499C31.5464 38.3074 24.8387 45.0151 15.8562 45.0151ZM15.8562 41.6321C22.7972 41.6321 27.6967 36.4409 27.6967 29.1499C27.6967 21.9756 22.8555 16.6678 15.8562 16.6678C8.79853 16.6678 4.01565 22.0339 4.01565 29.1499C4.01565 36.4409 8.91518 41.6321 15.8562 41.6321Z" fill="white"/>
<path d="M55.2448 45.0151C48.1288 45.0151 45.0374 39.9989 44.4541 39.0657H44.1625V44.2568H40.6628V0.510986H44.3958V19.2925H44.6874C45.329 18.126 48.4787 13.2848 55.4198 13.2848C64.2272 13.2848 70.06 19.7592 70.06 29.1499C70.06 38.5407 63.9939 45.0151 55.2448 45.0151ZM55.1281 41.6321C61.3692 41.6321 66.2104 36.8492 66.2104 29.1499C66.2104 21.6257 61.4858 16.6678 55.1864 16.6678C48.7704 16.6678 44.2208 21.7423 44.2208 29.1499C44.2208 36.0909 48.4204 41.6321 55.1281 41.6321Z" fill="white"/>
<path d="M88.7924 45.0151C81.8513 45.0151 77.8851 41.0488 77.2435 35.9743L80.6848 34.9827C81.0348 39.3573 84.0678 41.6321 89.084 41.6321C94.0419 41.6321 96.7249 39.124 96.7249 35.741C96.7249 26.4669 78.2934 33.4662 78.2934 21.4507C78.2934 16.3761 82.9013 13.2848 88.8507 13.2848C94.2168 13.2848 99.2914 16.3178 99.8163 21.8006L96.4916 22.7339C96.1417 19.0009 92.9336 16.5511 88.734 16.5511C84.5928 16.5511 81.9097 18.5343 81.9097 21.509C81.9097 29.8499 100.4 22.8505 100.4 35.6827C100.4 41.2821 95.7917 45.0151 88.7924 45.0151Z" fill="white"/>
<path d="M122.807 45.0151C113.707 45.0151 108.05 38.6574 108.05 29.2666C108.05 19.5842 114.291 13.2848 122.515 13.2848C131.497 13.2848 136.747 19.5258 136.747 28.625V30.2582H111.899C112.016 37.6075 116.274 41.6321 122.865 41.6321C127.473 41.6321 131.497 38.949 132.781 34.3994L136.397 35.2744C134.822 40.6405 130.039 45.0151 122.807 45.0151ZM111.958 27.0501H132.956C132.664 20.0508 127.939 16.6095 122.515 16.6095C116.974 16.6095 112.366 20.6341 111.958 27.0501Z" fill="white"/>
<path d="M145.869 44.2568V14.043H149.544V19.2925H149.836C151.06 16.4928 153.802 13.2848 158.41 13.2848H160.626V17.0178H158.118C152.635 17.0178 149.602 21.4507 149.602 27.8667V44.2568H145.869Z" fill="white"/>
<path d="M177.274 44.2568L165.667 14.043H169.691L179.49 40.7572H179.782L189.464 14.043H193.664L182.115 44.2568H177.274Z" fill="white"/>
<path d="M229.361 40.8738H230.82V44.2568H228.312C225.687 44.2568 224.229 42.857 224.229 40.0572V39.0657H223.937C223.354 39.9989 220.262 45.0151 213.205 45.0151C204.397 45.0151 198.389 38.5407 198.389 29.1499C198.389 19.7592 204.222 13.2848 212.971 13.2848C219.912 13.2848 223.062 18.126 223.762 19.2925H224.054V14.043H227.787V39.4156C227.787 40.4072 228.37 40.8738 229.361 40.8738ZM213.263 41.6321C219.971 41.6321 224.229 36.0326 224.229 29.1499C224.229 21.7423 219.679 16.6678 213.205 16.6678C206.905 16.6678 202.239 21.6257 202.239 29.1499C202.239 36.8492 207.022 41.6321 213.263 41.6321Z" fill="white"/>
<path d="M252.147 44.2568C246.722 44.2568 243.281 41.8071 243.281 35.7993V17.1344H237.448V14.043H243.572V5.11889H247.014V14.043H256.638V17.1344H247.014V35.741C247.014 39.4156 248.53 40.9905 252.205 40.9905H256.171V44.2568H252.147Z" fill="white"/>
<path d="M279.015 45.0151C270.032 45.0151 263.325 38.3657 263.325 29.1499C263.325 19.9925 270.149 13.2848 279.015 13.2848C287.997 13.2848 294.705 19.9925 294.705 29.1499C294.705 38.3074 287.997 45.0151 279.015 45.0151ZM279.015 41.6321C285.956 41.6321 290.855 36.4409 290.855 29.1499C290.855 21.9756 286.014 16.6678 279.015 16.6678C271.957 16.6678 267.174 22.0339 267.174 29.1499C267.174 36.4409 272.074 41.6321 279.015 41.6321Z" fill="white"/>
<path d="M309.712 8.26858C308.021 8.26858 306.796 6.92704 306.796 5.23554C306.796 3.60236 308.021 2.26082 309.712 2.26082C311.462 2.26082 312.687 3.60236 312.687 5.23554C312.687 6.92704 311.462 8.26858 309.712 8.26858ZM307.904 44.2568V17.1344H302.072V14.043H311.637V44.2568H307.904Z" fill="white"/>
<path d="M324.099 44.2568V14.043H327.774V19.2925H328.066C329.291 16.4928 332.032 13.2848 336.64 13.2848H338.856V17.0178H336.348C330.865 17.0178 327.832 21.4507 327.832 27.8667V44.2568H324.099Z" fill="white"/>
<path d="M358.681 45.0151C349.582 45.0151 343.924 38.6574 343.924 29.2666C343.924 19.5842 350.165 13.2848 358.389 13.2848C367.372 13.2848 372.621 19.5258 372.621 28.625V30.2582H347.774C347.89 37.6075 352.148 41.6321 358.739 41.6321C363.347 41.6321 367.372 38.949 368.655 34.3994L372.271 35.2744C370.696 40.6405 365.914 45.0151 358.681 45.0151ZM347.832 27.0501H368.83C368.538 20.0508 363.814 16.6095 358.389 16.6095C352.848 16.6095 348.24 20.6341 347.832 27.0501Z" fill="white"/>
<path d="M399.231 57.6722V14.043H402.73V19.2342H403.022C403.605 18.301 406.697 13.2848 413.813 13.2848C422.562 13.2848 428.628 19.7592 428.628 29.1499C428.628 38.5407 422.795 45.0151 413.988 45.0151C407.047 45.0151 403.955 40.2905 403.255 39.0073H402.964V57.6722H399.231ZM413.754 41.6321C420.054 41.6321 424.778 36.6742 424.778 29.1499C424.778 21.4507 419.937 16.6678 413.696 16.6678C406.988 16.6678 402.789 22.2089 402.789 29.1499C402.789 36.5576 407.338 41.6321 413.754 41.6321Z" fill="white"/>
<path d="M510.29 57.6722V14.043H513.79V19.2342H514.082C514.665 18.301 517.756 13.2848 524.872 13.2848C533.621 13.2848 539.688 19.7592 539.688 29.1499C539.688 38.5407 533.855 45.0151 525.047 45.0151C518.106 45.0151 515.015 40.2905 514.315 39.0073H514.023V57.6722H510.29ZM524.814 41.6321C531.113 41.6321 535.838 36.6742 535.838 29.1499C535.838 21.4507 530.997 16.6678 524.756 16.6678C518.048 16.6678 513.848 22.2089 513.848 29.1499C513.848 36.5576 518.398 41.6321 524.814 41.6321Z" fill="white"/>
<path d="M559.645 45.0151C552.412 45.0151 548.213 39.6489 548.213 32.7663V14.043H551.946V32.4746C551.946 38.0158 555.504 41.5738 560.461 41.5738C565.594 41.5738 569.619 37.6075 569.619 32.1247V14.043H573.352V44.2568H569.619V39.474H569.327C567.869 42.3903 564.603 45.0151 559.645 45.0151Z" fill="white"/>
<path d="M582.767 44.2568V41.1071H589.067V3.66069H582.767V0.510986H592.8V41.1071H599.041V44.2568H582.767Z" fill="white"/>
<path d="M634.737 40.8738H636.195V44.2568H633.687C631.063 44.2568 629.604 42.857 629.604 40.0572V39.0657H629.313C628.73 39.9989 625.638 45.0151 618.581 45.0151C609.773 45.0151 603.765 38.5407 603.765 29.1499C603.765 19.7592 609.598 13.2848 618.347 13.2848C625.288 13.2848 628.438 18.126 629.138 19.2925H629.429V14.043H633.162V39.4156C633.162 40.4072 633.746 40.8738 634.737 40.8738ZM618.639 41.6321C625.346 41.6321 629.604 36.0326 629.604 29.1499C629.604 21.7423 625.055 16.6678 618.581 16.6678C612.281 16.6678 607.615 21.6257 607.615 29.1499C607.615 36.8492 612.398 41.6321 618.639 41.6321Z" fill="white"/>
<path d="M651.748 8.26858C650.057 8.26858 648.832 6.92704 648.832 5.23554C648.832 3.60236 650.057 2.26082 651.748 2.26082C653.498 2.26082 654.723 3.60236 654.723 5.23554C654.723 6.92704 653.498 8.26858 651.748 8.26858ZM649.94 44.2568V17.1344H644.107V14.043H653.673V44.2568H649.94Z" fill="white"/>
<path d="M666.135 44.2568V14.043H669.81V19.2925H670.101C671.326 16.4928 674.068 13.2848 678.675 13.2848H680.892V17.0178H678.384C672.901 17.0178 669.868 21.4507 669.868 27.8667V44.2568H666.135Z" fill="white"/>
<path d="M700.716 45.0151C691.617 45.0151 685.96 38.6574 685.96 29.2666C685.96 19.5842 692.201 13.2848 700.425 13.2848C709.407 13.2848 714.657 19.5258 714.657 28.625V30.2582H689.809C689.926 37.6075 694.184 41.6321 700.775 41.6321C705.383 41.6321 709.407 38.949 710.691 34.3994L714.307 35.2744C712.732 40.6405 707.949 45.0151 700.716 45.0151ZM689.867 27.0501H710.865C710.574 20.0508 705.849 16.6095 700.425 16.6095C694.884 16.6095 690.276 20.6341 689.867 27.0501Z" fill="white"/>
<path d="M14.9813 103.343C6.17378 103.343 0.166016 96.8685 0.166016 87.4777C0.166016 78.087 5.99879 71.6126 14.748 71.6126C21.689 71.6126 24.8387 76.4538 25.5386 77.6203H25.8302V58.8388H29.5632V102.585H26.0052V97.3935H25.7136C25.1303 98.3267 22.0389 103.343 14.9813 103.343ZM15.0396 99.9599C21.7473 99.9599 26.0052 94.3604 26.0052 87.4777C26.0052 80.0701 21.4557 74.9956 14.9813 74.9956C8.68187 74.9956 4.01565 79.9534 4.01565 87.4777C4.01565 95.177 8.79853 99.9599 15.0396 99.9599Z" fill="white"/>
<path d="M52.8588 103.343C43.7597 103.343 38.1019 96.9852 38.1019 87.5944C38.1019 77.912 44.3429 71.6126 52.5672 71.6126C61.5496 71.6126 66.7991 77.8536 66.7991 86.9528V88.586H41.9515C42.0681 95.9353 46.3261 99.9599 52.9171 99.9599C57.525 99.9599 61.5496 97.2768 62.8328 92.7272L66.4492 93.6021C64.8743 98.9683 60.0914 103.343 52.8588 103.343ZM42.0098 85.3779H63.0078C62.7162 78.3786 57.9916 74.9373 52.5672 74.9373C47.026 74.9373 42.4181 78.9619 42.0098 85.3779Z" fill="white"/>
<path d="M91.9503 102.585V99.4349H98.2497V61.9885H91.9503V58.8388H101.983V99.4349H108.224V102.585H91.9503Z" fill="white"/>
<path d="M116.071 72.7208L115.837 61.7552H119.045L118.754 72.7208H116.071Z" fill="white"/>
<path d="M138.786 67.0047L141.936 58.8388H149.11L143.919 67.0047H138.786ZM142.111 103.343C132.778 103.343 126.537 96.6935 126.537 87.3611C126.537 77.737 133.595 71.2626 141.819 71.2626C151.152 71.2626 156.809 78.0286 156.809 87.1278V89.0526H133.653C133.712 94.1854 137.036 97.4518 142.052 97.4518C145.435 97.4518 148.644 95.702 149.752 92.3189L156.051 93.8355C154.068 100.193 148.469 103.343 142.111 103.343ZM133.712 84.0364H149.81C149.46 79.8951 146.019 77.2704 141.819 77.2704C137.445 77.2704 134.12 80.3617 133.712 84.0364Z" fill="white"/>
<path d="M176.328 102.585C170.378 102.585 166.47 99.9016 166.47 93.4272V78.087H161.163V72.0209H166.879V63.4467H173.411V72.0209H182.044V78.087H173.411V93.3688C173.411 95.527 174.286 96.4602 176.386 96.4602H181.694V102.585H176.328Z" fill="white"/>
<path d="M189.071 102.585V58.8388H195.954V75.5205H196.479C197.82 73.2458 200.678 71.2626 204.761 71.2626C211.469 71.2626 215.902 76.2788 215.902 82.5782V102.585H209.019V84.2114C209.019 80.4201 206.161 77.7953 202.661 77.7953C198.928 77.7953 195.954 80.595 195.954 84.3864V102.585H189.071Z" fill="white"/>
<path d="M231.161 67.2963C228.653 67.2963 226.786 65.4298 226.786 62.9801C226.786 60.5886 228.653 58.7221 231.161 58.7221C233.669 58.7221 235.535 60.5886 235.535 62.9801C235.535 65.4298 233.669 67.2963 231.161 67.2963ZM227.661 102.585V78.087H222.295V72.0209H234.544V102.585H227.661Z" fill="white"/>
<path d="M265.971 116V98.735H265.446C264.163 100.601 261.48 103.343 256.055 103.343C247.831 103.343 241.94 96.4602 241.94 87.3027C241.94 78.087 248.239 71.2626 256.463 71.2626C261.771 71.2626 264.279 74.1207 265.562 75.6955H266.087V72.0209H272.853V116H265.971ZM257.513 96.8685C262.238 96.8685 266.146 93.3688 266.146 87.3027C266.146 82.1116 262.763 77.737 257.572 77.737C252.789 77.737 248.939 81.5283 248.939 87.3027C248.939 92.9605 252.614 96.8685 257.513 96.8685Z" fill="white"/>
<path d="M292.541 103.343C285.833 103.343 281.575 98.3267 281.575 92.0273V72.0209H288.458V90.2191C288.458 94.0104 291.141 96.6352 294.641 96.6352C298.432 96.6352 301.29 93.7188 301.29 89.8692V72.0209H308.173V102.585H301.29V99.085H300.765C299.424 101.418 296.624 103.343 292.541 103.343Z" fill="white"/>
<path d="M330.48 103.343C321.147 103.343 314.906 96.6935 314.906 87.3611C314.906 77.737 321.964 71.2626 330.188 71.2626C339.521 71.2626 345.179 78.0286 345.179 87.1278V89.0526H322.022C322.081 94.1854 325.405 97.4518 330.422 97.4518C333.805 97.4518 337.013 95.702 338.121 92.3189L344.42 93.8355C342.437 100.193 336.838 103.343 330.48 103.343ZM322.081 84.0364H338.179C337.829 79.8951 334.388 77.2704 330.188 77.2704C325.814 77.2704 322.489 80.3617 322.081 84.0364Z" fill="white"/>
<path d="M379.732 103.343C373.082 103.343 368.125 100.135 367.308 93.8938L373.841 92.4356C374.482 95.6436 376.699 97.1601 379.907 97.1601C383.231 97.1601 384.981 95.9353 384.981 93.8938C384.981 87.711 368.416 92.9022 368.416 80.4784C368.416 75.2872 372.732 71.2626 379.673 71.2626C385.565 71.2626 390.172 74.2373 391.281 79.7201L385.156 81.4116C384.573 78.7286 382.59 77.5037 379.673 77.5037C376.757 77.5037 375.007 78.7869 375.007 80.595C375.007 86.3112 392.039 80.945 392.039 93.2522C392.039 99.2599 387.256 103.343 379.732 103.343Z" fill="white"/>
<path d="M412.85 103.343C403.342 103.343 396.985 96.2269 396.985 87.3027C396.985 78.3786 403.459 71.2626 412.791 71.2626C419.966 71.2626 425.973 75.2872 427.723 82.6949L421.191 84.2697C420.374 80.3034 417.108 77.7953 412.966 77.7953C407.659 77.7953 404.042 81.9366 404.042 87.3027C404.042 92.7856 407.775 96.8102 413.025 96.8102C417.166 96.8102 420.432 94.3604 421.249 90.3941L427.782 91.969C426.032 99.3766 420.024 103.343 412.85 103.343Z" fill="white"/>
<path d="M441.629 67.2963C439.12 67.2963 437.254 65.4298 437.254 62.9801C437.254 60.5886 439.12 58.7221 441.629 58.7221C444.137 58.7221 446.003 60.5886 446.003 62.9801C446.003 65.4298 444.137 67.2963 441.629 67.2963ZM438.129 102.585V78.087H432.763V72.0209H445.012V102.585H438.129Z" fill="white"/>
<path d="M467.981 103.343C458.648 103.343 452.407 96.6935 452.407 87.3611C452.407 77.737 459.465 71.2626 467.689 71.2626C477.022 71.2626 482.679 78.0286 482.679 87.1278V89.0526H459.523C459.582 94.1854 462.906 97.4518 467.923 97.4518C471.306 97.4518 474.514 95.702 475.622 92.3189L481.921 93.8355C479.938 100.193 474.339 103.343 467.981 103.343ZM459.582 84.0364H475.68C475.33 79.8951 471.889 77.2704 467.689 77.2704C463.315 77.2704 459.99 80.3617 459.582 84.0364Z" fill="white"/>
<path d="M489.366 102.585V72.0209H496.248V75.5205H496.773C498.115 73.1874 500.915 71.2626 504.998 71.2626C511.705 71.2626 515.963 76.2788 515.963 82.5782V102.585H509.081V84.2114C509.081 80.4201 506.397 77.7953 502.898 77.7953C499.106 77.7953 496.248 80.7117 496.248 84.5613V102.585H489.366Z" fill="white"/>
<path d="M536.944 102.585C530.994 102.585 527.086 99.9016 527.086 93.4272V78.087H521.779V72.0209H527.495V63.4467H534.028V72.0209H542.66V78.087H534.028V93.3688C534.028 95.527 534.902 96.4602 537.002 96.4602H542.31V102.585H536.944Z" fill="white"/>
<path d="M556.803 67.2963C554.295 67.2963 552.429 65.4298 552.429 62.9801C552.429 60.5886 554.295 58.7221 556.803 58.7221C559.311 58.7221 561.178 60.5886 561.178 62.9801C561.178 65.4298 559.311 67.2963 556.803 67.2963ZM553.303 102.585V78.087H547.937V72.0209H560.186V102.585H553.303Z" fill="white"/>
<path d="M572.073 102.585V78.087H566.707V72.0209H572.073V67.9962C572.073 61.5219 575.981 58.8388 581.872 58.8388H587.005V64.8465H581.989C579.831 64.8465 578.956 65.8964 578.956 68.0546V72.0209H587.18V78.087H578.956V102.585H572.073Z" fill="white"/>
<path d="M600.72 67.2963C598.212 67.2963 596.345 65.4298 596.345 62.9801C596.345 60.5886 598.212 58.7221 600.72 58.7221C603.228 58.7221 605.094 60.5886 605.094 62.9801C605.094 65.4298 603.228 67.2963 600.72 67.2963ZM597.22 102.585V78.087H591.854V72.0209H604.103V102.585H597.22Z" fill="white"/>
<path d="M635.53 116V98.735H635.005C633.722 100.601 631.038 103.343 625.614 103.343C617.39 103.343 611.499 96.4602 611.499 87.3027C611.499 78.087 617.798 71.2626 626.022 71.2626C631.33 71.2626 633.838 74.1207 635.121 75.6955H635.646V72.0209H642.412V116H635.53ZM627.072 96.8685C631.797 96.8685 635.705 93.3688 635.705 87.3027C635.705 82.1116 632.322 77.737 627.13 77.737C622.348 77.737 618.498 81.5283 618.498 87.3027C618.498 92.9605 622.173 96.8685 627.072 96.8685Z" fill="white"/>
<path d="M662.1 103.343C655.392 103.343 651.134 98.3267 651.134 92.0273V72.0209H658.017V90.2191C658.017 94.0104 660.7 96.6352 664.2 96.6352C667.991 96.6352 670.849 93.7188 670.849 89.8692V72.0209H677.732V102.585H670.849V99.085H670.324C668.982 101.418 666.183 103.343 662.1 103.343Z" fill="white"/>
<path d="M700.039 103.343C690.706 103.343 684.465 96.6935 684.465 87.3611C684.465 77.737 691.523 71.2626 699.747 71.2626C709.08 71.2626 714.737 78.0286 714.737 87.1278V89.0526H691.581C691.64 94.1854 694.964 97.4518 699.981 97.4518C703.364 97.4518 706.572 95.702 707.68 92.3189L713.979 93.8355C711.996 100.193 706.397 103.343 700.039 103.343ZM691.64 84.0364H707.738C707.388 79.8951 703.947 77.2704 699.747 77.2704C695.373 77.2704 692.048 80.3617 691.64 84.0364Z" fill="white"/>
</svg>
